<svg xmlns="http://www.w3.org/2000/svg" viewBox="0 0 512 512" fill="none">
  <rect width="512" height="512" rx="136" fill="#F7F4EE"/>
  <rect x="74" y="74" width="364" height="364" rx="98" fill="#1B2438"/>
  <rect x="130" y="144" width="252" height="224" rx="34" fill="#FFF7EB"/>
  <path fill="#2A995C" d="M176 205h160c14.36 0 26 11.64 26 26v50c0 14.36-11.64 26-26 26H176c-14.36 0-26-11.64-26-26v-50c0-14.36 11.64-26 26-26Z"/>
  <path fill="#1B2438" d="M188 153h136c8.837 0 16 7.163 16 16v19H172v-19c0-8.837 7.163-16 16-16Z"/>
  <path fill="#D44B43" d="M180 339h152c9.941 0 18 8.059 18 18s-8.059 18-18 18H180c-9.941 0-18-8.059-18-18s8.059-18 18-18Z"/>
  <path fill="#FFF7EB" d="M214 244c8.837 0 16 7.163 16 16v4c0 8.837-7.163 16-16 16s-16-7.163-16-16v-4c0-8.837 7.163-16 16-16Zm84 0c8.837 0 16 7.163 16 16v4c0 8.837-7.163 16-16 16s-16-7.163-16-16v-4c0-8.837 7.163-16 16-16Z"/>
  <path fill="#D69F2A" d="M172 392h95c8.837 0 16 7.163 16 16v0c0 8.837-7.163 16-16 16h-95c-8.837 0-16-7.163-16-16v0c0-8.837 7.163-16 16-16Z"/>
</svg>
